
<?xml version="1.0"?>
<svg version="1.1" xmlns="http://www.w3.org/2000/svg" width="612" height="144" style=""><path fill="#bf1391" d="M19.5,132l0-8.5l7.5-3l0-47l-7.5-3l0-8.5l23-0.5l28,0l0,19l-9.3,0l-2.5-7l-16.2,0l0,17.5l20.7,0l0,11l-20.7,0l0,18.5l9.2,3l0,8.5l-32.2,0z M92.751,114.5l0.8,6.5s3.5,1,8.4,1c5.5,0,8.2-1.7,8.2-4.9c0-8.2-26.7-5.2-26.7-23c0-12.5,10-17.1,20.6-17.1c9,0,18.6,3,18.6,3l-0.4,15l-8.5,0l-1.5-6s-2.9-1-6.9-1c-4.3,0-6.9,1.8-6.9,5.1c0,8.1,26.7,4.6,26.7,21.9c0,11.5-9.3,18-23,18c-9.5,0-18.4-2.2-18.4-2.2l0-16.3l9,0z"/><path fill="#f09f0a" d="M162.802,120.5l0-47l-9.5,0l-2.5,9.5l-9.2,0l0-21.5l58,0l0,21.5l-9.3,0l-2.5-9.5l-9.5,0l0,47l9.5,3l0,8.5l-34.5,0l0-8.5z M232.553,54.5l0,29.3c2.9-2.4,9.4-6.8,16.8-6.8c10.2,0,15.7,6.8,15.7,18l0,26.5l7,2.5l0,8l-27.2,0l0-8l5.2-2.4l0-24.2c0-5-2-8-6.6-8c-5.6,0-10.9,5.3-10.9,5.3l0,26.8l5.3,2.5l0,8l-28.3,0l0-8l8-2.5l0-56.2l-8-2l0-8z M333.804,108.3l-33.2,0c0.6,8,5.2,12.7,12.1,12.7c8.3,0,16.8-4.7,16.8-4.7l4.3,8.3s-10,8.4-22.8,8.4c-17.2,0-26-10-26-27c0-17.5,9.9-29,26.7-29c14.9,0,22.7,9.2,22.7,23.5c0,3.8-0.6,7.5-0.6,7.8z M300.804,99l18.1,0c0-5.7-2.4-10-8.2-10c-5.6,0-9.1,4.1-9.9,10z M441.655,124l0,8l-27.1,0l0-8l5.3-2.5l0-23.8c0-5.5-1.6-8.2-5.8-8.2c-6.5,0-11.1,5.2-11.1,5.2l0,26.8l5.2,2.5l0,8l-25.4,0l0-8l5.2-2.5l0-23.8c0-5.5-1.4-8.2-5.7-8.2c-6.5,0-11.2,5.2-11.2,5.2l0,26.8l5.3,2.5l0,8l-28,0l0-8l7.7-2.5l0-32.5l-7.6-2.5l0-8l20.9-0.5l0.7,7.1s8.7-8.1,17.5-8.1c7.1,0,11.5,3.3,13.8,8.6c1.7-1.7,9.2-8.6,18.1-8.6c10.5,0,15.4,6.8,15.4,18l0,26.5z M503.406,108.3l-33.2,0c0.6,8,5.2,12.7,12.1,12.7c8.3,0,16.8-4.7,16.8-4.7l4.3,8.3s-10,8.4-22.8,8.4c-17.2,0-26-10-26-27c0-17.5,9.9-29,26.7-29c14.9,0,22.7,9.2,22.7,23.5c0,3.8-0.6,7.5-0.6,7.8z M470.406,99l18.1,0c0-5.7-2.4-10-8.2-10c-5.6,0-9.1,4.1-9.9,10z M527.257,114.5l0.8,6.5s3.5,1,8.4,1c5.5,0,8.2-1.7,8.2-4.9c0-8.2-26.7-5.2-26.7-23c0-12.5,10-17.1,20.6-17.1c9,0,18.6,3,18.6,3l-0.4,15l-8.5,0l-1.5-6s-2.9-1-6.9-1c-4.3,0-6.9,1.8-6.9,5.1c0,8.1,26.7,4.6,26.7,21.9c0,11.5-9.3,18-23,18c-9.5,0-18.4-2.2-18.4-2.2l0-16.3l9,0z"/></svg>
