<svg version="1.1" xmlns="http://www.w3.org/2000/svg" width="400" height="200" style=""><path fill="#eb4b10" d="M31.79,110.585l16.79,0l0,5.84l-16.79,0l0,17.155l7.3,1.46l0,4.38l-21.17,0l0-4.38l6.205-1.46l0-39.42l-6.205-1.46l0-4.015l13.87-0.365l22.265,0l0,12.045l-4.745,0l-1.825-6.205l-15.695,0l0,16.425z M70.0858,127.74l0.803,6.278s2.19,0.657,6.132,0.657c4.38,0,8.249-1.241,8.249-5.767c0-7.884-20.367-4.234-20.367-17.52c0-7.592,5.84-11.388,13.359-11.388c5.767,0,12.483,2.19,12.483,2.19l-0.219,9.855l-4.745,0l-1.168-5.694s-2.263-0.876-5.913-0.876c-3.723,0-6.497,1.168-6.497,4.891c0,7.811,20.367,4.818,20.367,17.301c0,8.395-7.3,12.483-16.06,12.483c-6.716,0-11.534-1.606-11.534-1.606l0-10.804l5.11,0z"/><path fill="#0288e8" d="M114.2576,135.405l0-34.31l-5.475-2.19l0-6.205l16.79-0.365l6.935,0c14.6,0,23.214,8.614,23.214,25.039s-9.49,26.426-24.309,26.426l-22.63,0l0-6.205z M125.5726,135.04l6.059,0c7.081,0,11.826-4.161,11.826-17.301c0-12.264-4.161-16.644-11.315-16.644l-6.57,0l0,33.945z M202.62483,126.499l-24.236,0c0.438,5.84,3.796,9.271,8.833,9.271c6.059,0,12.264-3.431,12.264-3.431l3.139,6.059s-7.3,6.132-16.644,6.132c-12.556,0-18.98-7.3-18.98-19.71c0-12.775,7.227-21.17,19.491-21.17c10.877,0,16.571,6.716,16.571,17.155c0,2.774-0.438,5.475-0.438,5.694z M178.53483,119.71l13.213,0c0-4.161-1.752-7.3-5.986-7.3c-4.088,0-6.643,2.993-7.227,7.3z M220.03606,131.025l0.584,4.745s2.555,0.73,6.132,0.73c4.015,0,5.986-1.241,5.986-3.577c0-5.986-19.491-3.796-19.491-16.79c0-9.125,7.3-12.483,15.038-12.483c6.57,0,13.578,2.19,13.578,2.19l-0.292,10.95l-6.205,0l-1.095-4.38s-2.117-0.73-5.037-0.73c-3.139,0-5.037,1.314-5.037,3.723c0,5.913,19.491,3.358,19.491,15.987c0,8.395-6.789,13.14-16.79,13.14c-6.935,0-13.432-1.606-13.432-1.606l0-11.899l6.57,0z M258.39829,92.335c0-4.161,2.993-6.57,6.278-6.57c3.796,0,6.132,1.971,6.132,6.57c0,4.307-3.139,6.643-6.132,6.643c-3.942,0-6.278-2.336-6.278-6.643z M270.66229,136.135l5.11,1.825l0,5.84l-21.9,0l0-5.84l5.84-1.825l0-23.725l-5.84-1.825l0-5.84l16.79-0.365l0,31.755z M299.82652,137.23l10.804,0c9.271,0,14.6,4.015,14.6,11.315c0,8.03-6.424,13.87-20.44,13.87c-11.461,0-18.834-2.555-18.834-10.585c0-6.278,7.665-8.76,7.665-8.76s-4.38-0.657-4.38-4.818c0-2.117,2.92-6.862,3.796-8.249c-1.752-1.168-5.621-4.307-5.621-11.388c0-10.001,7.519-14.965,17.52-14.965c4.234,0,7.227,1.095,8.614,1.752l12.556-0.292l0,5.84l-5.986,1.022c0.146,0.657,1.241,2.628,1.241,5.767c0,10.585-7.446,14.965-17.52,14.965c-1.971,0-3.431-0.365-3.723-0.365z M304.57152,111.169c-4.38,0-6.205,2.336-6.205,6.935c0,4.38,1.679,7.3,5.84,7.3c4.599,0,6.205-2.409,6.205-7.3c0-4.599-1.825-6.935-5.84-6.935z M307.71052,145.26l-7.665,0s-3.504,1.606-3.504,4.745c0,3.65,3.139,4.38,9.125,4.38c6.57,0,9.344-1.46,9.344-4.964c0-3.285-2.409-4.161-7.3-4.161z M350.67175,104.38l0.511,5.037s6.935-5.621,13.432-5.621c7.081,0,11.096,5.037,11.096,12.994l0,19.345l5.11,1.825l0,5.84l-20.075,0l0-5.84l4.015-1.825l0-17.374c0-3.358-1.898-5.84-4.964-5.84c-4.526,0-7.811,4.161-7.811,4.161l0,19.053l4.015,1.825l0,5.84l-20.805,0l0-5.84l5.84-1.825l0-23.725l-5.84-1.825l0-5.84z"/></svg>
