<?xml version="1.0"?>
<svg version="1.1" xmlns="http://www.w3.org/2000/svg" width="400" height="200" style=""><path fill="#2783c4" d="M17.88,138.4l0-5.44l4.8-1.92l0-30.08l-4.8-1.92l0-5.44l14.72-0.32l17.92,0l0,12.16l-5.952,0l-1.6-4.48l-10.368,0l0,11.2l13.248,0l0,7.04l-13.248,0l0,11.84l5.888,1.92l0,5.44l-20.608,0z M64.76064,127.2l0.512,4.16s2.24,0.64,5.376,0.64c3.52,0,5.248-1.088,5.248-3.136c0-5.248-17.088-3.328-17.088-14.72c0-8,6.4-10.944,13.184-10.944c5.76,0,11.904,1.92,11.904,1.92l-0.256,9.6l-5.44,0l-0.96-3.84s-1.856-0.64-4.416-0.64c-2.752,0-4.416,1.152-4.416,3.264c0,5.184,17.088,2.944,17.088,14.016c0,7.36-5.952,11.52-14.72,11.52c-6.08,0-11.776-1.408-11.776-1.408l0-10.432l5.76,0z"/><path fill="#" d="M111.39328,131.04l0-30.08l-6.08,0l-1.6,6.08l-5.888,0l0-13.76l37.12,0l0,13.76l-5.952,0l-1.6-6.08l-6.08,0l0,30.08l6.08,1.92l0,5.44l-22.08,0l0-5.44z M156.03392,88.8l0,18.752c1.856-1.536,6.016-4.352,10.752-4.352c6.528,0,10.048,4.352,10.048,11.52l0,16.96l4.48,1.6l0,5.12l-17.408,0l0-5.12l3.328-1.536l0-15.488c0-3.2-1.28-5.12-4.224-5.12c-3.584,0-6.976,3.392-6.976,3.392l0,17.152l3.392,1.6l0,5.12l-18.112,0l0-5.12l5.12-1.6l0-35.968l-5.12-1.28l0-5.12z M220.83456,123.232l-21.248,0c0.384,5.12,3.328,8.128,7.744,8.128c5.312,0,10.752-3.008,10.752-3.008l2.752,5.312s-6.4,5.376-14.592,5.376c-11.008,0-16.64-6.4-16.64-17.28c0-11.2,6.336-18.56,17.088-18.56c9.536,0,14.528,5.888,14.528,15.04c0,2.432-0.384,4.8-0.384,4.992z M199.71456,117.28l11.584,0c0-3.648-1.536-6.4-5.248-6.4c-3.584,0-5.824,2.624-6.336,6.4z M289.8592,133.28l0,5.12l-17.344,0l0-5.12l3.392-1.6l0-15.232c0-3.52-1.024-5.248-3.712-5.248c-4.16,0-7.104,3.328-7.104,3.328l0,17.152l3.328,1.6l0,5.12l-16.256,0l0-5.12l3.328-1.6l0-15.232c0-3.52-0.896-5.248-3.648-5.248c-4.16,0-7.168,3.328-7.168,3.328l0,17.152l3.392,1.6l0,5.12l-17.92,0l0-5.12l4.928-1.6l0-20.8l-4.864-1.6l0-5.12l13.376-0.32l0.448,4.544s5.568-5.184,11.2-5.184c4.544,0,7.36,2.112,8.832,5.504c1.088-1.088,5.888-5.504,11.584-5.504c6.72,0,9.856,4.352,9.856,11.52l0,16.96z M329.37984,123.232l-21.248,0c0.384,5.12,3.328,8.128,7.744,8.128c5.312,0,10.752-3.008,10.752-3.008l2.752,5.312s-6.4,5.376-14.592,5.376c-11.008,0-16.64-6.4-16.64-17.28c0-11.2,6.336-18.56,17.088-18.56c9.536,0,14.528,5.888,14.528,15.04c0,2.432-0.384,4.8-0.384,4.992z M308.25984,117.28l11.584,0c0-3.648-1.536-6.4-5.248-6.4c-3.584,0-5.824,2.624-6.336,6.4z M344.64448,127.2l0.512,4.16s2.24,0.64,5.376,0.64c3.52,0,5.248-1.088,5.248-3.136c0-5.248-17.088-3.328-17.088-14.72c0-8,6.4-10.944,13.184-10.944c5.76,0,11.904,1.92,11.904,1.92l-0.256,9.6l-5.44,0l-0.96-3.84s-1.856-0.64-4.416-0.64c-2.752,0-4.416,1.152-4.416,3.264c0,5.184,17.088,2.944,17.088,14.016c0,7.36-5.952,11.52-14.72,11.52c-6.08,0-11.776-1.408-11.776-1.408l0-10.432l5.76,0z"/></svg>
