<?xml version="1.0"?>
<svg version="1.1" xmlns="http://www.w3.org/2000/svg" width="400" height="200" style=""><path fill="#ed58b4" d="M17.7,136l0-5.1l4.5-1.8l0-28.2l-4.5-1.8l0-5.1l13.8-0.3l16.8,0l0,11.4l-5.58,0l-1.5-4.2l-9.72,0l0,10.5l12.42,0l0,6.6l-12.42,0l0,11.1l5.52,1.8l0,5.1l-19.32,0z M61.6506,125.5l0.48,3.9s2.1,0.6,5.04,0.6c3.3,0,4.92-1.02,4.92-2.94c0-4.92-16.02-3.12-16.02-13.8c0-7.5,6-10.26,12.36-10.26c5.4,0,11.16,1.8,11.16,1.8l-0.24,9l-5.1,0l-0.9-3.6s-1.74-0.6-4.14-0.6c-2.58,0-4.14,1.08-4.14,3.06c0,4.86,16.02,2.76,16.02,13.14c0,6.9-5.58,10.8-13.8,10.8c-5.7,0-11.04-1.32-11.04-1.32l0-9.78l5.4,0z"/><path fill="#f0cd1d" d="M105.6812,129.1l0-28.2l-5.7,0l-1.5,5.7l-5.52,0l0-12.9l34.8,0l0,12.9l-5.58,0l-1.5-5.7l-5.7,0l0,28.2l5.7,1.8l0,5.1l-20.7,0l0-5.1z M147.5318,89.5l0,17.58c1.74-1.44,5.64-4.08,10.08-4.08c6.12,0,9.42,4.08,9.42,10.8l0,15.9l4.2,1.5l0,4.8l-16.32,0l0-4.8l3.12-1.44l0-14.52c0-3-1.2-4.8-3.96-4.8c-3.36,0-6.54,3.18-6.54,3.18l0,16.08l3.18,1.5l0,4.8l-16.98,0l0-4.8l4.8-1.5l0-33.72l-4.8-1.2l0-4.8z M208.2824,121.78l-19.92,0c0.36,4.8,3.12,7.62,7.26,7.62c4.98,0,10.08-2.82,10.08-2.82l2.58,4.98s-6,5.04-13.68,5.04c-10.32,0-15.6-6-15.6-16.2c0-10.5,5.94-17.4,16.02-17.4c8.94,0,13.62,5.52,13.62,14.1c0,2.28-0.36,4.5-0.36,4.68z M188.4824,116.2l10.86,0c0-3.42-1.44-6-4.92-6c-3.36,0-5.46,2.46-5.94,6z M272.993,131.2l0,4.8l-16.26,0l0-4.8l3.18-1.5l0-14.28c0-3.3-0.96-4.92-3.48-4.92c-3.9,0-6.66,3.12-6.66,3.12l0,16.08l3.12,1.5l0,4.8l-15.24,0l0-4.8l3.12-1.5l0-14.28c0-3.3-0.84-4.92-3.42-4.92c-3.9,0-6.72,3.12-6.72,3.12l0,16.08l3.18,1.5l0,4.8l-16.8,0l0-4.8l4.62-1.5l0-19.5l-4.56-1.5l0-4.8l12.54-0.3l0.42,4.26s5.22-4.86,10.5-4.86c4.26,0,6.9,1.98,8.28,5.16c1.02-1.02,5.52-5.16,10.86-5.16c6.3,0,9.24,4.08,9.24,10.8l0,15.9z M310.0436,121.78l-19.92,0c0.36,4.8,3.12,7.62,7.26,7.62c4.98,0,10.08-2.82,10.08-2.82l2.58,4.98s-6,5.04-13.68,5.04c-10.32,0-15.6-6-15.6-16.2c0-10.5,5.94-17.4,16.02-17.4c8.94,0,13.62,5.52,13.62,14.1c0,2.28-0.36,4.5-0.36,4.68z M290.2436,116.2l10.86,0c0-3.42-1.44-6-4.92-6c-3.36,0-5.46,2.46-5.94,6z M324.3542,125.5l0.48,3.9s2.1,0.6,5.04,0.6c3.3,0,4.92-1.02,4.92-2.94c0-4.92-16.02-3.12-16.02-13.8c0-7.5,6-10.26,12.36-10.26c5.4,0,11.16,1.8,11.16,1.8l-0.24,9l-5.1,0l-0.9-3.6s-1.74-0.6-4.14-0.6c-2.58,0-4.14,1.08-4.14,3.06c0,4.86,16.02,2.76,16.02,13.14c0,6.9-5.58,10.8-13.8,10.8c-5.7,0-11.04-1.32-11.04-1.32l0-9.78l5.4,0z"/></svg>
